<?xml version="1.0" encoding="UTF-8" standalone="no"?>
<!-- Created with Inkscape (http://www.inkscape.org/) -->

<svg
   xmlns:dc="http://purl.org/dc/elements/1.1/"
   xmlns:cc="http://creativecommons.org/ns#"
   xmlns:rdf="http://www.w3.org/1999/02/22-rdf-syntax-ns#"
   xmlns:svg="http://www.w3.org/2000/svg"
   xmlns="http://www.w3.org/2000/svg"
   xmlns:sodipodi="http://sodipodi.sourceforge.net/DTD/sodipodi-0.dtd"
   xmlns:inkscape="http://www.inkscape.org/namespaces/inkscape"
   version="1.1"
   id="svg2"
   xml:space="preserve"
   width="258.90488"
   height="84.666641"
   viewBox="0 0 258.90488 84.666641"
   sodipodi:docname="CONREL_LOGO2.svg"
   inkscape:version="0.92.4 (5da689c313, 2019-01-14)"><metadata
     id="metadata8"><rdf:RDF><cc:Work
         rdf:about=""><dc:format>image/svg+xml</dc:format><dc:type
           rdf:resource="http://purl.org/dc/dcmitype/StillImage" /><dc:title></dc:title></cc:Work></rdf:RDF></metadata><defs
     id="defs6" /><sodipodi:namedview
     pagecolor="#ffffff"
     bordercolor="#666666"
     borderopacity="1"
     objecttolerance="10"
     gridtolerance="10"
     guidetolerance="10"
     inkscape:pageopacity="0"
     inkscape:pageshadow="2"
     inkscape:window-width="1600"
     inkscape:window-height="850"
     id="namedview4"
     showgrid="false"
     inkscape:zoom="1.6659985"
     inkscape:cx="299.08679"
     inkscape:cy="40.05786"
     inkscape:window-x="0"
     inkscape:window-y="25"
     inkscape:window-maximized="1"
     inkscape:current-layer="g10" /><g
     id="g10"
     inkscape:groupmode="layer"
     inkscape:label="CONREL_LOGO"
     transform="matrix(1.3333333,0,0,-1.3333333,0,84.666641)"><g
       id="g12"
       transform="matrix(0.75936829,0,0,0.75936829,108.8971,113.43247)"><g
   id="g14"
   transform="matrix(0,-0.445778,-1,0,0,63.499981)"><path
     d="m 68.981,-184.434 c -79.654,19.707 -79.654,39.418 0,59.125 79.653,19.711 79.653,39.418 0,59.129 -79.654,19.707 -79.654,39.418 0,59.125 79.653,-19.707 79.653,-39.418 0,-59.125 -79.654,-19.711 -79.654,-39.418 0,-59.129 79.653,-19.707 79.653,-39.418 0,-59.125"
     style="fill:none;stroke:#e3e2db;stroke-width:8.5783987;stroke-linecap:butt;stroke-linejoin:miter;stroke-miterlimit:4;stroke-dasharray:none;stroke-opacity:1"
     id="path16"
     inkscape:connector-curvature="0" /></g><text
   transform="matrix(1,0,0,-1,-2.390627,14.917782)"
   style="font-variant:normal;font-weight:bold;font-size:48px;font-family:Umpush;-inkscape-font-specification:Umpush-Bold;writing-mode:lr-tb;fill:#0055d4;fill-opacity:1;fill-rule:nonzero;stroke:none"
   id="text20"><tspan
     x="0 34.655998 71.952003"
     y="0"
     sodipodi:role="line"
     id="tspan18">CON</tspan></text>

<text
   transform="matrix(1,0,0,-1,104.29687,14.917782)"
   style="font-variant:normal;font-weight:bold;font-size:48px;font-family:Umpush;-inkscape-font-specification:Umpush-Bold;writing-mode:lr-tb;fill:#d4aa00;fill-opacity:1;fill-rule:nonzero;stroke:none"
   id="text24"><tspan
     x="0"
     y="0"
     id="tspan22">R</tspan></text>

<text
   transform="matrix(1,0,0,-1,137.10937,14.917782)"
   style="font-variant:normal;font-weight:bold;font-size:48px;font-family:Umpush;-inkscape-font-specification:Umpush-Bold;writing-mode:lr-tb;fill:#d40000;fill-opacity:1;fill-rule:nonzero;stroke:none"
   id="text28"><tspan
     x="0 30.912001"
     y="0"
     sodipodi:role="line"
     id="tspan26">EL</tspan></text>

<g
   id="g30"
   transform="matrix(1,0,0,-1,0,63.499981)"><path
     d="m 36.703,7.316 c 0,3.598 -3.316,6.516 -7.402,6.516 -4.09,0 -7.406,-2.918 -7.406,-6.516 0,-3.597 3.316,-6.515 7.406,-6.515 4.086,0 7.402,2.918 7.402,6.515 z"
     style="fill:#f4eed7;fill-opacity:1;fill-rule:nonzero;stroke:#e3e2db;stroke-width:1.60000002;stroke-linecap:butt;stroke-linejoin:miter;stroke-miterlimit:46.29999924;stroke-dasharray:none;stroke-opacity:1"
     id="path32"
     inkscape:connector-curvature="0" /></g><g
   id="g34"
   transform="matrix(1,0,0,-1,0,63.499981)"><path
     d="m 111.34,56.184 c 0,3.597 -3.317,6.515 -7.406,6.515 -4.09,0 -7.403,-2.918 -7.403,-6.515 0,-3.598 3.313,-6.516 7.403,-6.516 4.089,0 7.406,2.918 7.406,6.516 z"
     style="fill:#f4eed7;fill-opacity:1;fill-rule:nonzero;stroke:#e3e2db;stroke-width:1.60000002;stroke-linecap:butt;stroke-linejoin:miter;stroke-miterlimit:46.29999924;stroke-dasharray:none;stroke-opacity:1"
     id="path36"
     inkscape:connector-curvature="0" /></g><g
   id="g38"
   transform="matrix(1,0,0,-1,0,63.499981)"><path
     d="m 193.379,30.715 c 0,3.597 -3.317,6.515 -7.406,6.515 -4.086,0 -7.403,-2.918 -7.403,-6.515 0,-3.602 3.317,-6.516 7.403,-6.516 4.089,0 7.406,2.914 7.406,6.516 z"
     style="fill:#f4eed7;fill-opacity:1;fill-rule:nonzero;stroke:#e3e2db;stroke-width:1.60000002;stroke-linecap:butt;stroke-linejoin:miter;stroke-miterlimit:46.29999924;stroke-dasharray:none;stroke-opacity:1"
     id="path40"
     inkscape:connector-curvature="0" /></g></g><rect
       style="fill:#179d82;fill-opacity:1;stroke:#000000;stroke-width:0.5102362;stroke-miterlimit:4;stroke-dasharray:none;stroke-opacity:1"
       id="rect827"
       width="222.82796"
       height="86.584587"
       x="210.01489"
       y="-73.004204"
       transform="scale(1,-1)" /><g
       id="g951"
       transform="translate(-220.28791,1.5878987)"><path
         inkscape:connector-curvature="0"
         id="path16-5"
         style="fill:none;stroke:#48adb0;stroke-width:4.34928608;stroke-linecap:butt;stroke-linejoin:miter;stroke-miterlimit:4;stroke-dasharray:none;stroke-opacity:1"
         d="m 383.70389,30.921299 c -14.96487,26.96365 -29.93278,26.96365 -44.89765,0 -14.96791,-26.9633103 -29.93278,-26.9633103 -44.90069,0 -14.96487,26.96365 -29.93278,26.96365 -44.89765,0 14.96487,-26.9633103 29.93278,-26.9633103 44.89765,0 14.96791,26.96365 29.93278,26.96365 44.90069,0 14.96487,-26.9633103 29.93278,-26.9633103 44.89765,0" /><text
         y="-17.380255"
         x="241.83519"
         transform="scale(1,-1)"
         style="font-variant:normal;font-weight:bold;font-size:36.44967651px;font-family:Umpush;-inkscape-font-specification:Umpush-Bold;writing-mode:lr-tb;fill:#0055d4;fill-opacity:1;fill-rule:nonzero;stroke:none;stroke-width:0.75936824"
         id="text20-3"><tspan
           style="stroke-width:0.75936824"
           x="241.83519 268.15186 296.47327"
           y="-17.380255"
           sodipodi:role="line"
           id="tspan18-5">CON</tspan></text>
<text
         y="-17.380255"
         x="322.85028"
         transform="scale(1,-1)"
         style="font-variant:normal;font-weight:bold;font-size:36.44967651px;font-family:Umpush;-inkscape-font-specification:Umpush-Bold;writing-mode:lr-tb;fill:#d4aa00;fill-opacity:1;fill-rule:nonzero;stroke:none;stroke-width:0.75936824"
         id="text24-6"><tspan
           style="stroke-width:0.75936824"
           x="322.85028"
           y="-17.380255"
           id="tspan22-2">R</tspan></text>
<text
         y="-17.380255"
         x="347.76706"
         transform="scale(1,-1)"
         style="font-variant:normal;font-weight:bold;font-size:36.44967651px;font-family:Umpush;-inkscape-font-specification:Umpush-Bold;writing-mode:lr-tb;fill:#d40000;fill-opacity:1;fill-rule:nonzero;stroke:none;stroke-width:0.75936824"
         id="text28-9"><tspan
           style="stroke-width:0.75936824"
           x="347.76706 371.24066"
           y="-17.380255"
           sodipodi:role="line"
           id="tspan26-1">EL</tspan></text>
<path
         inkscape:connector-curvature="0"
         id="path32-7"
         style="fill:#5f9b9d;fill-opacity:1;fill-rule:nonzero;stroke:#48adb0;stroke-width:1.2149893;stroke-linecap:butt;stroke-linejoin:miter;stroke-miterlimit:46.29999924;stroke-dasharray:none;stroke-opacity:1"
         d="m 271.52165,48.716497 c 0,-2.732207 -2.51806,-4.948044 -5.62084,-4.948044 -3.10582,0 -5.62388,2.215837 -5.62388,4.948044 0,2.731447 2.51806,4.947284 5.62388,4.947284 3.10278,0 5.62084,-2.215837 5.62084,-4.947284 z" /><path
         inkscape:connector-curvature="0"
         id="path36-9"
         style="fill:#5f9b9d;fill-opacity:1;fill-rule:nonzero;stroke:#48adb0;stroke-width:1.2149893;stroke-linecap:butt;stroke-linejoin:miter;stroke-miterlimit:46.29999924;stroke-dasharray:none;stroke-opacity:1"
         d="m 328.19862,11.607688 c 0,-2.7314475 -2.51882,-4.9472842 -5.62388,-4.9472842 -3.10581,0 -5.6216,2.2158367 -5.6216,4.9472842 0,2.732207 2.51579,4.948044 5.6216,4.948044 3.10506,0 5.62388,-2.215837 5.62388,-4.948044 z" /><path
         inkscape:connector-curvature="0"
         id="path40-6"
         style="fill:#5f9b9d;fill-opacity:1;fill-rule:nonzero;stroke:#48adb0;stroke-width:1.2149893;stroke-linecap:butt;stroke-linejoin:miter;stroke-miterlimit:46.29999924;stroke-dasharray:none;stroke-opacity:1"
         d="m 390.49644,30.948039 c 0,-2.731448 -2.51883,-4.947285 -5.62388,-4.947285 -3.10278,0 -5.62161,2.215837 -5.62161,4.947285 0,2.735244 2.51883,4.948043 5.62161,4.948043 3.10505,0 5.62388,-2.212799 5.62388,-4.948043 z" /></g></g></svg>