<?xml version="1.0" encoding="UTF-8" standalone="no"?>
<!-- Created with Inkscape (http://www.inkscape.org/) -->

<svg
   xmlns:dc="http://purl.org/dc/elements/1.1/"
   xmlns:cc="http://creativecommons.org/ns#"
   xmlns:rdf="http://www.w3.org/1999/02/22-rdf-syntax-ns#"
   xmlns:svg="http://www.w3.org/2000/svg"
   xmlns="http://www.w3.org/2000/svg"
   xmlns:sodipodi="http://sodipodi.sourceforge.net/DTD/sodipodi-0.dtd"
   xmlns:inkscape="http://www.inkscape.org/namespaces/inkscape"
   version="1.1"
   id="svg2"
   xml:space="preserve"
   width="258.90488"
   height="84.666641"
   viewBox="0 0 258.90488 84.666641"
   sodipodi:docname="CONREL_LOGO_CORNER.svg"
   inkscape:version="0.92.4 (5da689c313, 2019-01-14)"><metadata
     id="metadata8"><rdf:RDF><cc:Work
         rdf:about=""><dc:format>image/svg+xml</dc:format><dc:type
           rdf:resource="http://purl.org/dc/dcmitype/StillImage" /><dc:title></dc:title></cc:Work></rdf:RDF></metadata><defs
     id="defs6">


</defs><sodipodi:namedview
     pagecolor="#ffffff"
     bordercolor="#666666"
     borderopacity="1"
     objecttolerance="10"
     gridtolerance="10"
     guidetolerance="10"
     inkscape:pageopacity="0"
     inkscape:pageshadow="2"
     inkscape:window-width="1600"
     inkscape:window-height="850"
     id="namedview4"
     showgrid="false"
     inkscape:zoom="1.6659985"
     inkscape:cx="210.18045"
     inkscape:cy="-79.688325"
     inkscape:window-x="0"
     inkscape:window-y="25"
     inkscape:window-maximized="1"
     inkscape:current-layer="g10" /><g
     id="g10"
     inkscape:groupmode="layer"
     inkscape:label="CONREL_LOGO"
     transform="matrix(1.3333333,0,0,-1.3333333,0,84.666641)"><g
       id="g2815"
       transform="matrix(0.57461922,0,0,0.57461922,-41.744109,93.840608)"><path
         inkscape:connector-curvature="0"
         id="path915"
         style="fill:none;stroke:#22927d;stroke-width:5.72750568;stroke-linecap:butt;stroke-linejoin:miter;stroke-miterlimit:4;stroke-dasharray:none;stroke-opacity:1"
         d="m 328.95396,-107.05545 c -19.707,35.508 -39.418,35.508 -59.125,0 -19.711,-35.50756 -39.418,-35.50756 -59.129,0 -19.707,35.508 -39.418,35.508 -59.125,0 19.707,-35.50756 39.418,-35.50756 59.125,0 19.711,35.508 39.418,35.508 59.129,0 19.707,-35.50756 39.418,-35.50756 59.125,0" /><text
         y="124.88744"
         x="142.12933"
         transform="scale(1,-1)"
         style="font-variant:normal;font-weight:bold;font-size:48px;font-family:Umpush;-inkscape-font-specification:Umpush-Bold;writing-mode:lr-tb;fill:#0055d4;fill-opacity:1;fill-rule:nonzero;stroke:none"
         id="text919"><tspan
           x="142.12933 176.78532 214.08133"
           y="124.88744"
           sodipodi:role="line"
           id="tspan917">CON</tspan></text>
<text
         y="124.88744"
         x="248.81683"
         transform="scale(1,-1)"
         style="font-variant:normal;font-weight:bold;font-size:48px;font-family:Umpush;-inkscape-font-specification:Umpush-Bold;writing-mode:lr-tb;fill:#d4aa00;fill-opacity:1;fill-rule:nonzero;stroke:none"
         id="text923"><tspan
           x="248.81683"
           y="124.88744"
           id="tspan921">R</tspan></text>
<text
         y="124.88744"
         x="281.62933"
         transform="scale(1,-1)"
         style="font-variant:normal;font-weight:bold;font-size:48px;font-family:Umpush;-inkscape-font-specification:Umpush-Bold;writing-mode:lr-tb;fill:#d40000;fill-opacity:1;fill-rule:nonzero;stroke:none"
         id="text927"><tspan
           x="281.62933 312.54132"
           y="124.88744"
           sodipodi:role="line"
           id="tspan925">EL</tspan></text>
<path
         inkscape:connector-curvature="0"
         id="path931"
         style="fill:#63927d;fill-opacity:1;fill-rule:nonzero;stroke:#22927d;stroke-width:1.60000002;stroke-linecap:butt;stroke-linejoin:miter;stroke-miterlimit:46.29999924;stroke-dasharray:none;stroke-opacity:1"
         d="m 181.22296,-83.621239 c 0,-3.598 -3.316,-6.516 -7.402,-6.516 -4.09,0 -7.406,2.918 -7.406,6.516 0,3.597 3.316,6.515 7.406,6.515 4.086,0 7.402,-2.918 7.402,-6.515 z" /><path
         inkscape:connector-curvature="0"
         id="path935"
         style="fill:#63927d;fill-opacity:1;fill-rule:nonzero;stroke:#22927d;stroke-width:1.60000002;stroke-linecap:butt;stroke-linejoin:miter;stroke-miterlimit:46.29999924;stroke-dasharray:none;stroke-opacity:1"
         d="m 255.85996,-132.48924 c 0,-3.597 -3.317,-6.515 -7.406,-6.515 -4.09,0 -7.403,2.918 -7.403,6.515 0,3.598 3.313,6.516 7.403,6.516 4.089,0 7.406,-2.918 7.406,-6.516 z" /><path
         inkscape:connector-curvature="0"
         id="path939"
         style="fill:#63927d;fill-opacity:1;fill-rule:nonzero;stroke:#22927d;stroke-width:1.60000002;stroke-linecap:butt;stroke-linejoin:miter;stroke-miterlimit:46.29999924;stroke-dasharray:none;stroke-opacity:1"
         d="m 337.89896,-107.02024 c 0,-3.597 -3.317,-6.515 -7.406,-6.515 -4.086,0 -7.403,2.918 -7.403,6.515 0,3.602 3.317,6.516 7.403,6.516 4.089,0 7.406,-2.914 7.406,-6.516 z" /></g></g></svg>