<?xml version="1.0" encoding="UTF-8" standalone="no"?>
<svg
   xmlns:dc="http://purl.org/dc/elements/1.1/"
   xmlns:cc="http://creativecommons.org/ns#"
   xmlns:rdf="http://www.w3.org/1999/02/22-rdf-syntax-ns#"
   xmlns:svg="http://www.w3.org/2000/svg"
   xmlns="http://www.w3.org/2000/svg"
   viewBox="0 0 258.90488 84.666641"
   height="84.666641"
   width="258.90488"
   xml:space="preserve"
   id="svg2"
   version="1.1"><metadata
     id="metadata8"><rdf:RDF><cc:Work
         rdf:about=""><dc:format>image/svg+xml</dc:format><dc:type
           rdf:resource="http://purl.org/dc/dcmitype/StillImage" /><dc:title></dc:title></cc:Work></rdf:RDF></metadata><defs
     id="defs6" /><g
     transform="matrix(1.3333333,0,0,-1.3333333,0,84.666641)"
     id="g10"><g
       transform="matrix(0.53878922,0,0,0.53878922,44.778724,14.643434)"
       id="g12"><g
         transform="matrix(0,-0.445778,-1,0,0,63.499981)"
         id="g14"><path
           id="path16"
           style="fill:none;stroke:#e3e2db;stroke-width:8.5783987;stroke-linecap:butt;stroke-linejoin:miter;stroke-miterlimit:4;stroke-dasharray:none;stroke-opacity:1"
           d="m 68.981,-184.434 c -79.654,19.707 -79.654,39.418 0,59.125 79.653,19.711 79.653,39.418 0,59.129 -79.654,19.707 -79.654,39.418 0,59.125 79.653,-19.707 79.653,-39.418 0,-59.125 -79.654,-19.711 -79.654,-39.418 0,-59.129 79.653,-19.707 79.653,-39.418 0,-59.125" /></g><text
         id="text20"
         style="font-variant:normal;font-weight:bold;font-size:48px;font-family:Umpush;-inkscape-font-specification:Umpush-Bold;writing-mode:lr-tb;fill:#0055d4;fill-opacity:1;fill-rule:nonzero;stroke:none"
         transform="matrix(1,0,0,-1,-2.390627,14.917782)"><tspan
           id="tspan18"
           y="0"
           x="0 34.655998 71.952003">CON</tspan></text>
<text
         id="text24"
         style="font-variant:normal;font-weight:bold;font-size:48px;font-family:Umpush;-inkscape-font-specification:Umpush-Bold;writing-mode:lr-tb;fill:#d4aa00;fill-opacity:1;fill-rule:nonzero;stroke:none"
         transform="matrix(1,0,0,-1,104.29687,14.917782)"><tspan
           id="tspan22"
           y="0"
           x="0">R</tspan></text>
<text
         id="text28"
         style="font-variant:normal;font-weight:bold;font-size:48px;font-family:Umpush;-inkscape-font-specification:Umpush-Bold;writing-mode:lr-tb;fill:#d40000;fill-opacity:1;fill-rule:nonzero;stroke:none"
         transform="matrix(1,0,0,-1,137.10937,14.917782)"><tspan
           id="tspan26"
           y="0"
           x="0 30.912001">EL</tspan></text>
<g
         transform="matrix(1,0,0,-1,0,63.499981)"
         id="g30"><path
           id="path32"
           style="fill:#f4eed7;fill-opacity:1;fill-rule:nonzero;stroke:#e3e2db;stroke-width:1.60000002;stroke-linecap:butt;stroke-linejoin:miter;stroke-miterlimit:46.29999924;stroke-dasharray:none;stroke-opacity:1"
           d="m 36.703,7.316 c 0,3.598 -3.316,6.516 -7.402,6.516 -4.09,0 -7.406,-2.918 -7.406,-6.516 0,-3.597 3.316,-6.515 7.406,-6.515 4.086,0 7.402,2.918 7.402,6.515 z" /></g><g
         transform="matrix(1,0,0,-1,0,63.499981)"
         id="g34"><path
           id="path36"
           style="fill:#f4eed7;fill-opacity:1;fill-rule:nonzero;stroke:#e3e2db;stroke-width:1.60000002;stroke-linecap:butt;stroke-linejoin:miter;stroke-miterlimit:46.29999924;stroke-dasharray:none;stroke-opacity:1"
           d="m 111.34,56.184 c 0,3.597 -3.317,6.515 -7.406,6.515 -4.09,0 -7.403,-2.918 -7.403,-6.515 0,-3.598 3.313,-6.516 7.403,-6.516 4.089,0 7.406,2.918 7.406,6.516 z" /></g><g
         transform="matrix(1,0,0,-1,0,63.499981)"
         id="g38"><path
           id="path40"
           style="fill:#f4eed7;fill-opacity:1;fill-rule:nonzero;stroke:#e3e2db;stroke-width:1.60000002;stroke-linecap:butt;stroke-linejoin:miter;stroke-miterlimit:46.29999924;stroke-dasharray:none;stroke-opacity:1"
           d="m 193.379,30.715 c 0,3.597 -3.317,6.515 -7.406,6.515 -4.086,0 -7.403,-2.918 -7.403,-6.515 0,-3.602 3.317,-6.516 7.403,-6.516 4.089,0 7.406,2.914 7.406,6.516 z" /></g></g></g></svg>